<svg xmlns="http://www.w3.org/2000/svg" version="1.1" xmlns:xlink="http://www.w3.org/1999/xlink" xmlns:svgjs="http://svgjs.dev/svgjs" width="1500" height="1500" viewBox="0 0 1500 1500"><rect width="1500" height="1500" fill="#ffffff"></rect><g transform="matrix(0.6666666666666666,0,0,0.6666666666666666,249.39393939393932,581.4598907851598)"><svg viewBox="0 0 396 134" data-background-color="#ffffff" preserveAspectRatio="xMidYMid meet" height="507" width="1500" xmlns="http://www.w3.org/2000/svg" xmlns:xlink="http://www.w3.org/1999/xlink"><g id="tight-bounds" transform="matrix(1,0,0,1,0.24000000000003752,-0.18232356571425612)"><svg viewBox="0 0 395.5199999999999 134.3646471314285" height="134.3646471314285" width="395.5199999999999"><g><svg viewBox="0 0 395.5199999999999 134.3646471314285" height="134.3646471314285" width="395.5199999999999"><g transform="matrix(1,0,0,1,0,83.04274236952378)"><svg viewBox="0 0 395.5199999999999 51.32190476190475" height="51.32190476190475" width="395.5199999999999"><g id="textblocktransform"><svg viewBox="0 0 395.5199999999999 51.32190476190475" height="51.32190476190475" width="395.5199999999999" id="textblock"><g><svg viewBox="0 0 395.5199999999999 51.32190476190475" height="51.32190476190475" width="395.5199999999999"><g transform="matrix(1,0,0,1,0,0)"><svg width="395.5199999999999" viewBox="2.45 -32.75 324.42 42.1" height="51.32190476190475" data-palette-color="#000000"><path d="M22-11.35L5.2-9 5-12.15 20.1-14.2Q19.9-16.95 18.2-18.73 16.5-20.5 13.5-20.5L13.5-20.5Q10.4-20.5 8.38-18.28 6.35-16.05 6.35-11.9L6.35-11.9 6.35-10.8Q6.7-6.8 8.97-4.73 11.25-2.65 15.2-2.65L15.2-2.65Q17.3-2.65 19-3.35 20.7-4.05 21.7-4.85L21.7-4.85Q22.25-4.5 22.58-4.03 22.9-3.55 22.9-2.95L22.9-2.95Q22.9-2 21.83-1.18 20.75-0.35 18.98 0.15 17.2 0.65 15 0.65L15 0.65Q11.15 0.65 8.33-0.75 5.5-2.15 3.98-4.93 2.45-7.7 2.45-11.7L2.45-11.7Q2.45-14.55 3.28-16.78 4.1-19 5.58-20.55 7.05-22.1 9.1-22.93 11.15-23.75 13.55-23.75L13.55-23.75Q16.6-23.75 18.93-22.45 21.25-21.15 22.58-18.82 23.9-16.5 23.9-13.5L23.9-13.5Q23.9-12.4 23.4-11.93 22.9-11.45 22-11.35L22-11.35ZM46-6.15L46-6.15Q46-2.95 43.65-1.15 41.3 0.65 36.85 0.65L36.85 0.65Q33.05 0.65 30.65-0.53 28.25-1.7 28.25-3.1L28.25-3.1Q28.25-3.7 28.57-4.28 28.9-4.85 29.55-5.2L29.55-5.2Q30.9-4.25 32.7-3.45 34.5-2.65 36.8-2.65L36.8-2.65Q42-2.65 42-6.15L42-6.15Q42-7.6 41.12-8.53 40.25-9.45 38.55-9.85L38.55-9.85 34.4-10.95Q31.35-11.7 29.95-13.28 28.55-14.85 28.55-17.2L28.55-17.2Q28.55-19.85 30.7-21.8 32.85-23.75 37.25-23.75L37.25-23.75Q39.6-23.75 41.35-23.28 43.1-22.8 44.07-22.03 45.05-21.25 45.05-20.35L45.05-20.35Q45.05-19.7 44.72-19.2 44.4-18.7 43.85-18.45L43.85-18.45Q43.25-18.85 42.32-19.33 41.4-19.8 40.15-20.13 38.9-20.45 37.4-20.45L37.4-20.45Q35.2-20.45 33.85-19.6 32.5-18.75 32.5-17.2L32.5-17.2Q32.5-16.1 33.27-15.28 34.05-14.45 35.75-14.05L35.75-14.05 39.2-13.2Q42.6-12.4 44.3-10.68 46-8.95 46-6.15ZM52.09-6.05L52.09-13.2 56.09-13.2 56.09-6.3Q56.09-4.3 57.25-3.48 58.4-2.65 60.4-2.65L60.4-2.65Q61.25-2.65 62.3-2.95 63.34-3.25 64.05-3.65L64.05-3.65Q64.34-3.35 64.59-2.9 64.84-2.45 64.84-1.85L64.84-1.85Q64.84-0.75 63.55-0.05 62.25 0.65 59.95 0.65L59.95 0.65Q56.45 0.65 54.27-0.9 52.09-2.45 52.09-6.05L52.09-6.05ZM63.25-19.3L54.15-19.3 54.15-22.6 64.3-22.6Q64.45-22.4 64.59-21.95 64.75-21.5 64.75-21L64.75-21Q64.75-20.2 64.34-19.75 63.95-19.3 63.25-19.3L63.25-19.3ZM56.09-28.35L56.09-11.7 52.09-11.7 52.09-29.8Q52.34-29.9 52.87-30.03 53.4-30.15 54-30.15L54-30.15Q55.05-30.15 55.57-29.73 56.09-29.3 56.09-28.35L56.09-28.35ZM78.89 0.7L78.89 0.7Q74.19 0.7 71.62-1.15 69.04-3 69.04-6.5L69.04-6.5Q69.04-9.75 71.22-11.48 73.39-13.2 77.24-13.55L77.24-13.55 84.34-14.25 84.34-15.65Q84.34-18.15 82.84-19.3 81.34-20.45 78.79-20.45L78.79-20.45Q76.74-20.45 74.87-19.85 72.99-19.25 71.54-18.5L71.54-18.5Q71.14-18.85 70.82-19.33 70.49-19.8 70.49-20.3L70.49-20.3Q70.49-21.6 71.94-22.3L71.94-22.3Q73.29-23 75.07-23.38 76.84-23.75 78.84-23.75L78.84-23.75Q83.19-23.75 85.74-21.8 88.29-19.85 88.29-15.65L88.29-15.65 88.29-3.8Q88.29-2.7 87.87-2.13 87.44-1.55 86.59-1.05L86.59-1.05Q85.39-0.4 83.39 0.15 81.39 0.7 78.89 0.7ZM78.89-2.6L78.89-2.6Q80.99-2.6 82.37-3.03 83.74-3.45 84.34-3.85L84.34-3.85 84.34-11.1 78.14-10.45Q75.54-10.25 74.29-9.3 73.04-8.35 73.04-6.55L73.04-6.55Q73.04-4.7 74.52-3.65 75.99-2.6 78.89-2.6ZM95.64-6.05L95.64-13.2 99.64-13.2 99.64-6.3Q99.64-4.3 100.79-3.48 101.94-2.65 103.94-2.65L103.94-2.65Q104.79-2.65 105.84-2.95 106.89-3.25 107.59-3.65L107.59-3.65Q107.89-3.35 108.14-2.9 108.39-2.45 108.39-1.85L108.39-1.85Q108.39-0.75 107.09-0.05 105.79 0.65 103.49 0.65L103.49 0.65Q99.99 0.65 97.82-0.9 95.64-2.45 95.64-6.05L95.64-6.05ZM106.79-19.3L97.69-19.3 97.69-22.6 107.84-22.6Q107.99-22.4 108.14-21.95 108.29-21.5 108.29-21L108.29-21Q108.29-20.2 107.89-19.75 107.49-19.3 106.79-19.3L106.79-19.3ZM99.64-28.35L99.64-11.7 95.64-11.7 95.64-29.8Q95.89-29.9 96.42-30.03 96.94-30.15 97.54-30.15L97.54-30.15Q98.59-30.15 99.12-29.73 99.64-29.3 99.64-28.35L99.64-28.35ZM132.44-11.35L115.64-9 115.44-12.15 130.54-14.2Q130.34-16.95 128.64-18.73 126.94-20.5 123.94-20.5L123.94-20.5Q120.84-20.5 118.81-18.28 116.79-16.05 116.79-11.9L116.79-11.9 116.79-10.8Q117.14-6.8 119.41-4.73 121.69-2.65 125.64-2.65L125.64-2.65Q127.74-2.65 129.44-3.35 131.14-4.05 132.14-4.85L132.14-4.85Q132.69-4.5 133.01-4.03 133.34-3.55 133.34-2.95L133.34-2.95Q133.34-2 132.26-1.18 131.19-0.35 129.41 0.15 127.64 0.65 125.44 0.65L125.44 0.65Q121.59 0.65 118.76-0.75 115.94-2.15 114.41-4.93 112.89-7.7 112.89-11.7L112.89-11.7Q112.89-14.55 113.71-16.78 114.54-19 116.01-20.55 117.49-22.1 119.54-22.93 121.59-23.75 123.99-23.75L123.99-23.75Q127.04-23.75 129.36-22.45 131.69-21.15 133.01-18.82 134.34-16.5 134.34-13.5L134.34-13.5Q134.34-12.4 133.84-11.93 133.34-11.45 132.44-11.35L132.44-11.35ZM168.38-11.35L151.58-9 151.38-12.15 166.48-14.2Q166.28-16.95 164.58-18.73 162.88-20.5 159.88-20.5L159.88-20.5Q156.78-20.5 154.76-18.28 152.73-16.05 152.73-11.9L152.73-11.9 152.73-10.8Q153.08-6.8 155.36-4.73 157.63-2.65 161.58-2.65L161.58-2.65Q163.68-2.65 165.38-3.35 167.08-4.05 168.08-4.85L168.08-4.85Q168.63-4.5 168.96-4.03 169.28-3.55 169.28-2.95L169.28-2.95Q169.28-2 168.21-1.18 167.13-0.35 165.36 0.15 163.58 0.65 161.38 0.65L161.38 0.65Q157.53 0.65 154.71-0.75 151.88-2.15 150.36-4.93 148.83-7.7 148.83-11.7L148.83-11.7Q148.83-14.55 149.66-16.78 150.48-19 151.96-20.55 153.43-22.1 155.48-22.93 157.53-23.75 159.93-23.75L159.93-23.75Q162.98-23.75 165.31-22.45 167.63-21.15 168.96-18.82 170.28-16.5 170.28-13.5L170.28-13.5Q170.28-12.4 169.78-11.93 169.28-11.45 168.38-11.35L168.38-11.35ZM183.03-13.05L183.03-13.05 183.78-13.4Q185.83-16.05 187.63-18.35 189.43-20.65 191.33-23.4L191.33-23.4Q191.53-23.45 191.63-23.45 191.73-23.45 191.88-23.45L191.88-23.45Q192.93-23.45 193.53-22.98 194.13-22.5 194.13-21.7L194.13-21.7Q194.13-21.15 193.91-20.65 193.68-20.15 193.18-19.5L193.18-19.5Q191.48-17.4 189.71-15.25 187.93-13.1 186.23-11.05L186.23-11.05 184.93-9.95Q183.08-7.5 181.13-4.88 179.18-2.25 177.38 0.25L177.38 0.25Q177.33 0.25 177.06 0.25 176.78 0.25 176.68 0.25L176.68 0.25Q175.53 0.25 174.96-0.25 174.38-0.75 174.38-1.5L174.38-1.5Q174.38-1.9 174.56-2.35 174.73-2.8 175.38-3.6L175.38-3.6Q177.18-6 179.18-8.33 181.18-10.65 183.03-13.05ZM185.48-12.95L185.48-12.95 186.38-12.35Q188.43-9.65 190.51-7.03 192.58-4.4 194.63-1.75L194.63-1.75Q194.53-0.8 193.98-0.25 193.43 0.3 192.53 0.3L192.53 0.3Q191.73 0.3 191.18-0.13 190.63-0.55 189.93-1.45L189.93-1.45Q188.43-3.55 186.76-5.9 185.08-8.25 183.58-10.3L183.58-10.3 182.43-11.35Q180.23-14 178.33-16.4 176.43-18.8 174.43-21.35L174.43-21.35Q174.63-22.35 175.18-22.9 175.73-23.45 176.53-23.45L176.53-23.45Q177.38-23.45 177.88-23.03 178.38-22.6 178.88-21.9L178.88-21.9Q180.38-19.9 182.03-17.53 183.68-15.15 185.48-12.95ZM210.03 0.65L210.03 0.65Q207.88 0.65 206 0.03 204.13-0.6 203.28-1.35L203.28-1.35 203.28-5.05Q204.28-4.1 205.8-3.38 207.33-2.65 209.48-2.65L209.48-2.65Q212.98-2.65 215.1-4.78 217.23-6.9 217.23-11.6L217.23-11.6Q217.23-14.9 216.15-16.82 215.08-18.75 213.3-19.6 211.53-20.45 209.48-20.45L209.48-20.45Q207.68-20.45 206.43-20 205.18-19.55 204.18-19L204.18-19 204.18-2.4 200.18-2.4 200.18-18.9Q200.18-19.9 200.53-20.5 200.88-21.1 201.98-21.75L201.98-21.75Q203.33-22.5 205.2-23.13 207.08-23.75 209.48-23.75L209.48-23.75Q212.78-23.75 215.45-22.48 218.13-21.2 219.7-18.53 221.28-15.85 221.28-11.6L221.28-11.6Q221.28-7.5 219.85-4.78 218.43-2.05 215.88-0.7 213.33 0.65 210.03 0.65ZM202.33 9.35L202.33 9.35Q201.28 9.35 200.73 8.9 200.18 8.45 200.18 7.5L200.18 7.5 200.18-3.85 204.18-3.75 204.18 9Q203.93 9.1 203.43 9.22 202.93 9.35 202.33 9.35ZM227.88-1.55L227.88-13.2 231.88-12.6 231.88-0.1Q231.63 0 231.13 0.13 230.63 0.25 230.03 0.25L230.03 0.25Q228.98 0.25 228.43-0.18 227.88-0.6 227.88-1.55L227.88-1.55ZM231.88-30.95L231.88-10.7 227.88-11.25 227.88-32.4Q228.13-32.5 228.65-32.63 229.18-32.75 229.73-32.75L229.73-32.75Q230.83-32.75 231.35-32.33 231.88-31.9 231.88-30.95L231.88-30.95ZM261.22-11.55L261.22-11.55Q261.22-7.85 259.82-5.1 258.42-2.35 255.87-0.85 253.32 0.65 249.87 0.65L249.87 0.65Q246.42 0.65 243.85-0.85 241.27-2.35 239.87-5.1 238.47-7.85 238.47-11.55L238.47-11.55Q238.47-15.3 239.9-18.03 241.32-20.75 243.9-22.25 246.47-23.75 249.87-23.75L249.87-23.75Q253.27-23.75 255.82-22.25 258.37-20.75 259.8-18.03 261.22-15.3 261.22-11.55ZM249.87-20.45L249.87-20.45Q246.52-20.45 244.55-18.07 242.57-15.7 242.57-11.55L242.57-11.55Q242.57-7.35 244.5-5 246.42-2.65 249.87-2.65L249.87-2.65Q253.27-2.65 255.2-5.03 257.12-7.4 257.12-11.55L257.12-11.55Q257.12-15.7 255.2-18.07 253.27-20.45 249.87-20.45ZM271.42-18.8L271.42-18.8 271.42-10.9 267.42-10.9 267.42-18.5Q267.42-19.65 267.85-20.33 268.27-21 269.27-21.65L269.27-21.65Q270.57-22.5 272.82-23.13 275.07-23.75 277.82-23.75L277.82-23.75Q281.82-23.75 281.82-21.75L281.82-21.75Q281.82-21.25 281.67-20.83 281.52-20.4 281.27-20.1L281.27-20.1Q280.77-20.2 279.97-20.3 279.17-20.4 278.37-20.4L278.37-20.4Q276.07-20.4 274.32-19.93 272.57-19.45 271.42-18.8ZM267.42-1.55L267.42-13.2 271.42-12.6 271.42-0.1Q271.17 0 270.67 0.13 270.17 0.25 269.57 0.25L269.57 0.25Q268.52 0.25 267.97-0.18 267.42-0.6 267.42-1.55L267.42-1.55ZM304.77-11.35L287.97-9 287.77-12.15 302.87-14.2Q302.67-16.95 300.97-18.73 299.27-20.5 296.27-20.5L296.27-20.5Q293.17-20.5 291.14-18.28 289.12-16.05 289.12-11.9L289.12-11.9 289.12-10.8Q289.47-6.8 291.74-4.73 294.02-2.65 297.97-2.65L297.97-2.65Q300.07-2.65 301.77-3.35 303.47-4.05 304.47-4.85L304.47-4.85Q305.02-4.5 305.34-4.03 305.67-3.55 305.67-2.95L305.67-2.95Q305.67-2 304.59-1.18 303.52-0.35 301.74 0.15 299.97 0.65 297.77 0.65L297.77 0.65Q293.92 0.65 291.09-0.75 288.27-2.15 286.74-4.93 285.22-7.7 285.22-11.7L285.22-11.7Q285.22-14.55 286.04-16.78 286.87-19 288.34-20.55 289.82-22.1 291.87-22.93 293.92-23.75 296.32-23.75L296.32-23.75Q299.37-23.75 301.69-22.45 304.02-21.15 305.34-18.82 306.67-16.5 306.67-13.5L306.67-13.5Q306.67-12.4 306.17-11.93 305.67-11.45 304.77-11.35L304.77-11.35ZM316.47-18.8L316.47-18.8 316.47-10.9 312.47-10.9 312.47-18.5Q312.47-19.65 312.89-20.33 313.32-21 314.32-21.65L314.32-21.65Q315.62-22.5 317.87-23.13 320.12-23.75 322.87-23.75L322.87-23.75Q326.87-23.75 326.87-21.75L326.87-21.75Q326.87-21.25 326.72-20.83 326.57-20.4 326.32-20.1L326.32-20.1Q325.82-20.2 325.02-20.3 324.22-20.4 323.42-20.4L323.42-20.4Q321.12-20.4 319.37-19.93 317.62-19.45 316.47-18.8ZM312.47-1.55L312.47-13.2 316.47-12.6 316.47-0.1Q316.22 0 315.72 0.13 315.22 0.25 314.62 0.25L314.62 0.25Q313.57 0.25 313.02-0.18 312.47-0.6 312.47-1.55L312.47-1.55Z" opacity="1" transform="matrix(1,0,0,1,0,0)" fill="#000000" class="wordmark-text-0" data-fill-palette-color="primary" id="text-0"></path></svg></g></svg></g></svg></g></svg></g><g transform="matrix(1,0,0,1,145.48021463299594,0)"><svg viewBox="0 0 104.55957073400803 70.92687238095236" height="70.92687238095236" width="104.55957073400803"><g><svg xmlns="http://www.w3.org/2000/svg" xmlns:xlink="http://www.w3.org/1999/xlink" version="1.1" x="8" y="0" viewBox="11.873403208343838 23.812 120.33420258048918 96.375" enable-background="new 0 0 144.083 144" xml:space="preserve" height="70.92687238095236" width="88.55957073400803" class="icon-icon-0" data-fill-palette-color="accent" id="icon-0"><rect x="38.758" y="93.806" width="6" height="11.723" fill="#000000" data-fill-palette-color="accent"></rect><rect x="27.758" y="93.806" width="6" height="11.723" fill="#000000" data-fill-palette-color="accent"></rect><rect x="109.446" y="93.806" width="6" height="11.723" fill="#000000" data-fill-palette-color="accent"></rect><rect x="98.446" y="93.806" width="6" height="11.723" fill="#000000" data-fill-palette-color="accent"></rect><path d="M132.122 82.455L122.122 41.544A3 3 0 0 0 119.208 39.256H50.292V26.812A3 3 0 0 0 47.292 23.812H33.292A3 3 0 0 0 30.292 26.812V39.257H24.876A3 3 0 0 0 21.962 41.545L11.96 82.455A2.996 2.996 0 0 0 14.874 86.166H16.607V117.187A3 3 0 0 0 19.607 120.187H124.475A3 3 0 0 0 127.475 117.187V86.167H129.207C130.129 86.167 130.998 85.744 131.566 85.02 132.137 84.295 132.34 83.35 132.122 82.455M55.883 68.889L72.218 49.887 88.2 68.871V114.188H55.883zM117.843 49.311H79.577L76.165 45.257H116.853zM36.292 29.812H44.292V39.257H36.292zM68.287 45.257L64.802 49.311H26.24L27.231 45.257zM22.608 86.167H49.883V114.188H22.608zM121.475 114.188H94.2V86.167H121.475z" fill="#000000" data-fill-palette-color="accent"></path><path d="M72.042 78.396A7.817 7.817 0 0 0 64.224 86.212V99.666H79.859V86.213A7.817 7.817 0 0 0 72.042 78.396" fill="#000000" data-fill-palette-color="accent"></path></svg></g></svg></g><g><rect width="145.48021463299594" height="4.628262335634284" y="65.29861004531807" x="250.03978536700396" fill="#000000" data-fill-palette-color="accent"></rect><rect width="145.48021463299594" height="4.628262335634284" y="65.29861004531807" x="0" fill="#000000" data-fill-palette-color="accent"></rect><rect width="145.48021463299594" height="4.628262335634284" y="56.042085374049506" x="250.03978536700396" fill="#000000" data-fill-palette-color="accent"></rect><rect width="145.48021463299594" height="4.628262335634284" y="56.042085374049506" x="0" fill="#000000" data-fill-palette-color="accent"></rect></g></svg></g><defs></defs></svg><rect width="395.5199999999999" height="134.3646471314285" fill="none" stroke="none" visibility="hidden"></rect></g></svg></g></svg>